<?xml version="1.0" encoding="utf-8"?>
<!-- Generator: Adobe Illustrator 19.0.0, SVG Export Plug-In . SVG Version: 6.00 Build 0)  -->
<svg version="1.1" id="Layer_1" xmlns="http://www.w3.org/2000/svg" xmlns:xlink="http://www.w3.org/1999/xlink" x="0px" y="0px"
	 viewBox="0 0 800 250" style="enable-background:new 0 0 800 250;" xml:space="preserve">
<style type="text/css">
	.st0{fill:#999999;}
	.st1{fill:#E6E6E6;}
	.st2{fill:none;stroke:#000000;stroke-miterlimit:10;}
	.st3{fill:#B3B3B3;}
	.st4{fill:#CCCCCC;}
	.st5{fill:none;}
	.st6{font-family:'MyriadPro-Regular';}
	.st7{font-size:50px;}
</style>
<g id="XMLID_1_">
	<g id="XMLID_16_">
		<path id="XMLID_34_" class="st0" d="M345.8,184.3c0-5.2-3.8-9.5-8.5-9.5c-2.3,0-4.5,1.1-6,2.8c-1.5,1.7-2.5,4.1-2.5,6.7v4.4
			c0,5.2,3.8,9.5,8.5,9.5c4.7,0,8.5-4.3,8.5-9.5V184.3z M348,168.8v35.4h-146v-35.4H348z M325.3,185.6c0-6.4-4.7-11.7-10.5-11.7h-99
			c-2.9,0-5.5,1.3-7.4,3.4c-1.9,2.1-3.1,5-3.1,8.3c0,6.4,4.7,11.7,10.5,11.7h99c2.9,0,5.5-1.3,7.4-3.4S325.3,188.8,325.3,185.6z"/>
		<path id="XMLID_31_" class="st1" d="M345.8,184.3v4.4c0,5.2-3.8,9.5-8.5,9.5c-4.7,0-8.5-4.3-8.5-9.5v-4.4c0-2.6,1-5,2.5-6.7
			c1.6-1.7,3.7-2.8,6-2.8C341.9,174.8,345.8,179.1,345.8,184.3z"/>
		<path id="XMLID_30_" class="st1" d="M314.8,173.9c5.8,0,10.5,5.3,10.5,11.7c0,3.2-1.2,6.2-3.1,8.3s-4.5,3.4-7.4,3.4h-99
			c-5.8,0-10.5-5.3-10.5-11.7c0-3.2,1.2-6.1,3.1-8.3c1.9-2.1,4.5-3.4,7.4-3.4H314.8z"/>
		<path id="XMLID_29_" class="st1" d="M331.5,155.5H217.3c-6.6,0-12-5.4-12-12V62.8c0-6.6,5.4-12,12-12h114.2c6.6,0,12,5.4,12,12
			v80.8C343.5,150.1,338.1,155.5,331.5,155.5z"/>
		<path id="XMLID_26_" class="st0" d="M217.3,155.5h114.2c6.6,0,12-5.4,12-12V62.8c0-6.6-5.4-12-12-12H217.3c-6.6,0-12,5.4-12,12
			v80.8C205.3,150.1,210.7,155.5,217.3,155.5z M202.1,59.3c0-6.6,5.4-12,12-12h122c6.6,0,12,5.4,12,12v89.3c0,6.6-5.4,12-12,12h-122
			c-6.6,0-12-5.4-12-12V59.3z"/>
		<path id="XMLID_7_" class="st1" d="M66.8,174.9c0,6.6-5.4,12-12,12H31.1c-6.6,0-12-5.4-12-12V68.5c0-6.6,5.4-12,12-12h23.7
			c6.6,0,12,5.4,12,12V174.9z"/>
		<path id="XMLID_4_" class="st0" d="M72.5,183.7c0,6.6-5.4,12-12,12H26c-6.6,0-12-5.4-12-12V59.6c0-6.6,5.4-12,12-12h34.5
			c6.6,0,12,5.4,12,12V183.7z M54.8,186.9c6.6,0,12-5.4,12-12V68.5c0-6.6-5.4-12-12-12H31.1c-6.6,0-12,5.4-12,12v106.4
			c0,6.6,5.4,12,12,12H54.8z"/>
	</g>
	<g id="XMLID_17_">
		<path id="XMLID_33_" class="st2" d="M60.5,195.7H26c-6.6,0-12-5.4-12-12V59.6c0-6.6,5.4-12,12-12h34.5c6.6,0,12,5.4,12,12v124.1
			C72.5,190.3,67.1,195.7,60.5,195.7z"/>
		<path id="XMLID_32_" class="st2" d="M54.8,186.9H31.1c-6.6,0-12-5.4-12-12V68.5c0-6.6,5.4-12,12-12h23.7c6.6,0,12,5.4,12,12v106.4
			C66.8,181.5,61.4,186.9,54.8,186.9z"/>
		<path id="XMLID_21_" class="st2" d="M336,160.6h-122c-6.6,0-12-5.4-12-12V59.3c0-6.6,5.4-12,12-12h122c6.6,0,12,5.4,12,12v89.3
			C348,155.2,342.6,160.6,336,160.6z"/>
		<path id="XMLID_20_" class="st2" d="M331.5,155.5H217.3c-6.6,0-12-5.4-12-12V62.8c0-6.6,5.4-12,12-12h114.2c6.6,0,12,5.4,12,12
			v80.8C343.5,150.1,338.1,155.5,331.5,155.5z"/>
		<rect id="XMLID_19_" x="202.1" y="168.8" class="st2" width="146" height="35.4"/>
		<path id="XMLID_18_" class="st2" d="M337.2,198.3c4.7,0,8.5-4.3,8.5-9.5v-4.4c0-5.2-3.8-9.5-8.5-9.5c-2.3,0-4.5,1.1-6,2.8
			c-1.5,1.7-2.5,4.1-2.5,6.7v4.4C328.7,194,332.6,198.3,337.2,198.3z"/>
		<path id="XMLID_13_" class="st2" d="M314.8,197.3h-99c-5.8,0-10.5-5.3-10.5-11.7c0-3.2,1.2-6.1,3.1-8.3c1.9-2.1,4.5-3.4,7.4-3.4
			h99c5.8,0,10.5,5.3,10.5,11.7c0,3.2-1.2,6.2-3.1,8.3S317.7,197.3,314.8,197.3z"/>
	</g>
</g>
<g id="XMLID_38_">
	<g id="XMLID_41_">
		<polygon id="XMLID_43_" class="st3" points="176.3,116.7 152.9,144.1 152.9,123.2 97.2,123.2 97.2,110.2 152.9,110.2 152.9,91.8 
					"/>
	</g>
	<g id="XMLID_42_">
		<polygon id="XMLID_45_" class="st2" points="152.9,144.1 152.9,123.2 97.2,123.2 97.2,110.2 152.9,110.2 152.9,91.8 176.3,116.7 
					"/>
	</g>
</g>
<g id="XMLID_46_">
	<g id="XMLID_49_">
		<rect id="XMLID_51_" x="389.3" y="126.5" class="st4" width="53.8" height="15.6"/>
		<rect id="XMLID_24_" x="389.3" y="101.2" class="st4" width="53.8" height="15.6"/>
	</g>
	<g id="XMLID_50_">
		<rect id="XMLID_53_" x="389.3" y="101.2" class="st2" width="53.8" height="15.6"/>
		<rect id="XMLID_52_" x="389.3" y="126.5" class="st2" width="53.8" height="15.6"/>
	</g>
</g>
<rect id="XMLID_68_" x="486.2" y="97.4" class="st5" width="307.8" height="41.1"/>
<text id="XMLID_25_" transform="matrix(0.8973 0 0 1 486.2148 132.9222)" class="st6 st7">4 billion devices</text>
</svg>
