<?xml version="1.0" encoding="utf-8"?>
<!-- Generator: Adobe Illustrator 19.0.0, SVG Export Plug-In . SVG Version: 6.00 Build 0)  -->
<svg version="1.1" id="Layer_1" xmlns="http://www.w3.org/2000/svg" xmlns:xlink="http://www.w3.org/1999/xlink" x="0px" y="0px"
	 viewBox="0 0 600 250" style="enable-background:new 0 0 600 250;" xml:space="preserve">
<style type="text/css">
	.st0{opacity:0.33;}
	.st1{fill:#999999;}
	.st2{fill:#E6E6E6;}
	.st3{fill:none;stroke:#000000;stroke-miterlimit:10;}
</style>
<g id="XMLID_13_" class="st0">
	<g id="XMLID_16_">
		<path id="XMLID_41_" class="st1" d="M566.2,198.9v-4.4c0-5.2-4.3-9.5-9.5-9.5c-2.6,0-5,1.1-6.7,2.8c-1.7,1.7-2.8,4.1-2.8,6.7v4.4
			c0,5.2,4.3,9.5,9.5,9.5C561.9,208.3,566.2,204.1,566.2,198.9z M568.7,178.9v35.4H406v-35.4H568.7z M543.4,195.7
			c0-6.4-5.3-11.7-11.7-11.7H421.3c-3.2,0-6.1,1.3-8.3,3.4c-2.1,2.1-3.4,5.1-3.4,8.3c0,6.4,5.3,11.7,11.7,11.7h110.3
			c3.2,0,6.2-1.3,8.3-3.4C542,201.8,543.4,198.9,543.4,195.7z"/>
		<path id="XMLID_38_" class="st1" d="M568.7,69.4v89.3c0,6.6-5.4,12-12,12H418c-6.6,0-12-5.4-12-12V69.4c0-6.6,5.4-12,12-12h138.6
			C563.3,57.4,568.7,62.8,568.7,69.4z M563.6,153.6V72.8c0-6.6-5.4-12-12-12h-130c-6.6,0-12,5.4-12,12v80.8c0,6.6,5.4,12,12,12h130
			C558.2,165.6,563.6,160.2,563.6,153.6z"/>
		<path id="XMLID_37_" class="st2" d="M566.2,194.4v4.4c0,5.2-4.3,9.5-9.5,9.5c-5.2,0-9.5-4.3-9.5-9.5v-4.4c0-2.6,1.1-5,2.8-6.7
			c1.7-1.7,4.1-2.8,6.7-2.8C561.9,184.9,566.2,189.2,566.2,194.4z"/>
		<path id="XMLID_36_" class="st2" d="M563.6,72.8v80.8c0,6.6-5.4,12-12,12h-130c-6.6,0-12-5.4-12-12V72.8c0-6.6,5.4-12,12-12h130
			C558.2,60.8,563.6,66.3,563.6,72.8z"/>
		<path id="XMLID_35_" class="st2" d="M531.7,184c6.4,0,11.7,5.3,11.7,11.7c0,3.2-1.3,6.2-3.4,8.3c-2.1,2.1-5,3.4-8.3,3.4H421.3
			c-6.4,0-11.7-5.3-11.7-11.7c0-3.2,1.3-6.1,3.4-8.3c2.1-2.1,5-3.4,8.3-3.4H531.7z"/>
		<path id="XMLID_34_" class="st1" d="M368.7,99.5v17.1c0,6.6-5.4,12-12,12h-4.5v-5c4.8-1.6,8.2-6.1,8.2-11.4v-10.8
			c0-5.3-3.5-9.8-8.2-11.4v-2.5h4.5C363.3,87.5,368.7,92.9,368.7,99.5z"/>
		<path id="XMLID_33_" class="st2" d="M360.5,101.4v10.8c0,5.3-3.5,9.8-8.2,11.4V90C357,91.6,360.5,96.1,360.5,101.4z"/>
		<rect id="XMLID_32_" x="340.2" y="128.6" class="st1" width="12" height="35.5"/>
		<path id="XMLID_31_" class="st1" d="M352.3,123.5v5h-12v-4.4h8.3C349.8,124.2,351.1,123.9,352.3,123.5z"/>
		<path id="XMLID_30_" class="st2" d="M352.3,90v33.6c-1.2,0.4-2.5,0.6-3.8,0.6h-8.3V89.4h8.3C349.8,89.4,351.1,89.6,352.3,90z"/>
		<rect id="XMLID_29_" x="340.2" y="55.8" class="st1" width="12" height="31.6"/>
		<path id="XMLID_28_" class="st1" d="M340.2,87.5h12V90c-1.2-0.4-2.5-0.6-3.8-0.6h-8.3V87.5z"/>
		<path id="XMLID_27_" class="st2" d="M340.2,89.4v34.8H340c-6.6,0-12-5.4-12-12v-10.8c0-6.6,5.4-12,12-12H340.2z"/>
		<path id="XMLID_26_" class="st1" d="M340,89.4c-6.6,0-12,5.4-12,12v10.8c0,6.6,5.4,12,12,12h0.2v4.4h-5.7c-6.6,0-12-5.4-12-12
			V99.5c0-6.6,5.4-12,12-12h5.7v1.9H340z"/>
		<path id="XMLID_23_" class="st1" d="M286.4,78.9v55.7c0,6.6-5.4,12-12,12H138.9c-6.6,0-12-5.4-12-12V78.9c0-6.6,5.4-12,12-12
			h135.5C281,66.9,286.4,72.3,286.4,78.9z M278.2,127V86.5c0-6.6-5.4-12-12-12H145.2c-6.6,0-12,5.4-12,12V127c0,6.6,5.4,12,12,12
			h120.9C272.8,139,278.2,133.6,278.2,127z"/>
		<path id="XMLID_22_" class="st2" d="M278.2,86.5V127c0,6.6-5.4,12-12,12H145.2c-6.6,0-12-5.4-12-12V86.5c0-6.6,5.4-12,12-12h120.9
			C272.8,74.5,278.2,79.9,278.2,86.5z"/>
		<path id="XMLID_19_" class="st1" d="M95.9,47.9V172c0,6.6-5.4,12-12,12H42.7c-6.6,0-12-5.4-12-12V47.9c0-6.6,5.4-12,12-12h41.2
			C90.5,35.9,95.9,41.3,95.9,47.9z M89.6,163.1V56.7c0-6.6-5.4-12-12-12H48.4c-6.6,0-12,5.4-12,12v106.4c0,6.6,5.4,12,12,12h29.2
			C84.2,175.1,89.6,169.7,89.6,163.1z"/>
		<path id="XMLID_18_" class="st2" d="M89.6,56.7v106.4c0,6.6-5.4,12-12,12H48.4c-6.6,0-12-5.4-12-12V56.7c0-6.6,5.4-12,12-12h29.2
			C84.2,44.7,89.6,50.1,89.6,56.7z"/>
	</g>
	<g id="XMLID_17_">
		<path id="XMLID_57_" class="st3" d="M83.9,184H42.7c-6.6,0-12-5.4-12-12V47.9c0-6.6,5.4-12,12-12h41.2c6.6,0,12,5.4,12,12V172
			C95.9,178.6,90.5,184,83.9,184z"/>
		<path id="XMLID_56_" class="st3" d="M77.6,175.1H48.4c-6.6,0-12-5.4-12-12V56.7c0-6.6,5.4-12,12-12h29.2c6.6,0,12,5.4,12,12v106.4
			C89.6,169.7,84.2,175.1,77.6,175.1z"/>
		<path id="XMLID_55_" class="st3" d="M274.4,146.6H138.9c-6.6,0-12-5.4-12-12V78.9c0-6.6,5.4-12,12-12h135.5c6.6,0,12,5.4,12,12
			v55.7C286.4,141.2,281,146.6,274.4,146.6z"/>
		<path id="XMLID_54_" class="st3" d="M266.2,139H145.2c-6.6,0-12-5.4-12-12V86.5c0-6.6,5.4-12,12-12h120.9c6.6,0,12,5.4,12,12V127
			C278.2,133.6,272.8,139,266.2,139z"/>
		<polyline id="XMLID_53_" class="st3" points="340.2,87.5 340.2,55.8 352.3,55.8 352.3,87.5 		"/>
		<polyline id="XMLID_52_" class="st3" points="352.3,128.6 352.3,164 340.2,164 340.2,128.6 		"/>
		<path id="XMLID_51_" class="st3" d="M352.3,87.5h4.5c6.6,0,12,5.4,12,12v17.1c0,6.6-5.4,12-12,12h-4.5h-12h-5.7
			c-6.6,0-12-5.4-12-12V99.5c0-6.6,5.4-12,12-12h5.7H352.3z"/>
		<path id="XMLID_50_" class="st3" d="M556.7,170.7H418c-6.6,0-12-5.4-12-12V69.4c0-6.6,5.4-12,12-12h138.6c6.6,0,12,5.4,12,12v89.3
			C568.7,165.3,563.3,170.7,556.7,170.7z"/>
		<path id="XMLID_49_" class="st3" d="M551.6,165.6h-130c-6.6,0-12-5.4-12-12V72.8c0-6.6,5.4-12,12-12h130c6.6,0,12,5.4,12,12v80.8
			C563.6,160.2,558.2,165.6,551.6,165.6z"/>
		<rect id="XMLID_48_" x="406" y="178.9" class="st3" width="162.6" height="35.4"/>
		<path id="XMLID_47_" class="st3" d="M556.7,208.3c5.2,0,9.5-4.3,9.5-9.5v-4.4c0-5.2-4.3-9.5-9.5-9.5c-2.6,0-5,1.1-6.7,2.8
			c-1.7,1.7-2.8,4.1-2.8,6.7v4.4C547.2,204.1,551.4,208.3,556.7,208.3z"/>
		<path id="XMLID_46_" class="st3" d="M531.7,207.4H421.3c-6.4,0-11.7-5.3-11.7-11.7c0-3.2,1.3-6.1,3.4-8.3c2.1-2.1,5-3.4,8.3-3.4
			h110.3c6.4,0,11.7,5.3,11.7,11.7c0,3.2-1.3,6.2-3.4,8.3C537.8,206.1,534.9,207.4,531.7,207.4z"/>
		<path id="XMLID_45_" class="st3" d="M352.3,123.5c-1.2,0.4-2.5,0.6-3.8,0.6h-8.3H340c-6.6,0-12-5.4-12-12v-10.8
			c0-6.6,5.4-12,12-12h0.2h8.3c1.3,0,2.6,0.2,3.8,0.6c4.8,1.6,8.2,6.1,8.2,11.4v10.8C360.5,117.4,357,121.9,352.3,123.5z"/>
	</g>
</g>
</svg>
