<?xml version="1.0" encoding="utf-8"?>
<!-- Generator: Adobe Illustrator 19.0.0, SVG Export Plug-In . SVG Version: 6.00 Build 0)  -->
<svg version="1.1" id="Layer_1" xmlns="http://www.w3.org/2000/svg" xmlns:xlink="http://www.w3.org/1999/xlink" x="0px" y="0px"
	 viewBox="0 0 250 250" style="enable-background:new 0 0 250 250;" xml:space="preserve">
<style type="text/css">
	.st0{opacity:3.000000e-002;}
	.st1{fill:#999999;}
	.st2{fill:#E6E6E6;}
	.st3{fill:none;stroke:#000000;stroke-miterlimit:10;}
	.st4{opacity:3.000000e-002;fill:#FFFFFF;stroke:#000000;stroke-miterlimit:10;}
</style>
<g id="XMLID_1_" class="st0">
	<g id="XMLID_16_">
		<path id="XMLID_5_" class="st1" d="M157.5,106.2v124.1c0,6.6-5.4,12-12,12h-41.2c-6.6,0-12-5.4-12-12V106.2c0-6.6,5.4-12,12-12
			h41.2C152.1,94.2,157.5,99.6,157.5,106.2z M151.2,221.4V115.1c0-6.6-5.4-12-12-12H110c-6.6,0-12,5.4-12,12v106.4
			c0,6.6,5.4,12,12,12h29.2C145.8,233.4,151.2,228,151.2,221.4z"/>
		<path id="XMLID_4_" class="st2" d="M151.2,115.1v106.4c0,6.6-5.4,12-12,12H110c-6.6,0-12-5.4-12-12V115.1c0-6.6,5.4-12,12-12h29.2
			C145.8,103.1,151.2,108.5,151.2,115.1z"/>
	</g>
	<g id="XMLID_17_">
		<path id="XMLID_9_" class="st3" d="M145.5,242.3h-41.2c-6.6,0-12-5.4-12-12V106.2c0-6.6,5.4-12,12-12h41.2c6.6,0,12,5.4,12,12
			v124.1C157.5,236.9,152.1,242.3,145.5,242.3z"/>
		<path id="XMLID_8_" class="st3" d="M139.2,233.4H110c-6.6,0-12-5.4-12-12V115.1c0-6.6,5.4-12,12-12h29.2c6.6,0,12,5.4,12,12v106.4
			C151.2,228,145.8,233.4,139.2,233.4z"/>
	</g>
</g>
<path id="XMLID_20_" class="st4" d="M208.2,65.6c-17.3-24.6-48.1-41-83.2-41S59.2,41,41.8,65.6C53.1,31.8,86.1,7.3,125,7.3
	S196.9,31.8,208.2,65.6z"/>
<path id="XMLID_10_" class="st4" d="M192.2,84.6c-13.9-20.2-38.6-33.6-66.7-33.6S72.6,64.5,58.7,84.6c9.1-27.7,35.5-47.8,66.7-47.8
	S183.1,56.9,192.2,84.6z"/>
<path id="XMLID_11_" class="st4" d="M158.2,89.6c-6.9-10.1-19.3-16.8-33.4-16.8c-14.1,0-26.4,6.7-33.4,16.8
	c4.5-13.9,17.8-23.9,33.4-23.9S153.6,75.8,158.2,89.6z"/>
</svg>
