<?xml version="1.0" encoding="utf-8"?>
<!-- Generator: Adobe Illustrator 19.0.0, SVG Export Plug-In . SVG Version: 6.00 Build 0)  -->
<svg version="1.1" id="Layer_1" xmlns="http://www.w3.org/2000/svg" xmlns:xlink="http://www.w3.org/1999/xlink" x="0px" y="0px"
	 viewBox="0 0 550 300" style="enable-background:new 0 0 550 300;" xml:space="preserve">
<style type="text/css">
	.st0{fill:#999999;}
	.st1{fill:#E6E6E6;}
	.st2{fill:none;stroke:#000000;stroke-miterlimit:10;}
	.st3{fill:#CCCCCC;}
</style>
<g id="XMLID_1_">
	<g id="XMLID_16_">
		<path id="XMLID_25_" class="st0" d="M456.9,212.2v-4.4c0-5.2-4.3-9.5-9.5-9.5c-2.6,0-5,1.1-6.7,2.8c-1.7,1.7-2.8,4.1-2.8,6.7v4.4
			c0,5.2,4.3,9.5,9.5,9.5C452.6,221.7,456.9,217.4,456.9,212.2z M459.4,227.7H296.7v-35.4h162.6V227.7z M300.3,209
			c0,6.4,5.3,11.7,11.7,11.7h110.3c3.2,0,6.2-1.3,8.3-3.4c2.1-2.1,3.4-5.1,3.4-8.3c0-6.4-5.3-11.7-11.7-11.7H312
			c-3.2,0-6.1,1.3-8.3,3.4C301.6,202.9,300.3,205.8,300.3,209z"/>
		<path id="XMLID_22_" class="st0" d="M296.7,172V82.7c0-6.6,5.4-12,12-12h138.6c6.6,0,12,5.4,12,12V172c0,6.6-5.4,12-12,12H308.7
			C302.1,184,296.7,178.6,296.7,172z M300.3,86.2V167c0,6.6,5.4,12,12,12h130c6.6,0,12-5.4,12-12V86.2c0-6.6-5.4-12-12-12h-130
			C305.7,74.2,300.3,79.6,300.3,86.2z"/>
		<path id="XMLID_21_" class="st1" d="M300.3,167V86.2c0-6.6,5.4-12,12-12h130c6.6,0,12,5.4,12,12V167c0,6.6-5.4,12-12,12h-130
			C305.7,179,300.3,173.6,300.3,167z"/>
		<path id="XMLID_20_" class="st1" d="M440.6,201c1.7-1.7,4.1-2.8,6.7-2.8c5.2,0,9.5,4.3,9.5,9.5v4.4c0,5.2-4.3,9.5-9.5,9.5
			c-5.2,0-9.5-4.3-9.5-9.5v-4.4C437.9,205.1,438.9,202.8,440.6,201z"/>
		<path id="XMLID_19_" class="st1" d="M312,220.7c-6.4,0-11.7-5.3-11.7-11.7c0-3.2,1.3-6.2,3.4-8.3c2.1-2.1,5.1-3.4,8.3-3.4h110.3
			c6.4,0,11.7,5.3,11.7,11.7c0,3.2-1.3,6.1-3.4,8.3c-2.1,2.1-5.1,3.4-8.3,3.4H312z"/>
		<path id="XMLID_7_" class="st0" d="M138,218.8c6.6,0,12-5.4,12-12V100.4c0-6.6-5.4-12-12-12h-29.2c-6.6,0-12,5.4-12,12v106.4
			c0,6.6,5.4,12,12,12H138z M91.2,215.7V91.6c0-6.6,5.4-12,12-12h41.2c6.6,0,12,5.4,12,12v124.1c0,6.6-5.4,12-12,12h-41.2
			C96.6,227.7,91.2,222.3,91.2,215.7z"/>
		<path id="XMLID_6_" class="st1" d="M150,206.8c0,6.6-5.4,12-12,12h-29.2c-6.6,0-12-5.4-12-12V100.4c0-6.6,5.4-12,12-12H138
			c6.6,0,12,5.4,12,12V206.8z"/>
	</g>
	<g id="XMLID_17_">
		<path id="XMLID_41_" class="st2" d="M144.4,227.7h-41.2c-6.6,0-12-5.4-12-12V91.6c0-6.6,5.4-12,12-12h41.2c6.6,0,12,5.4,12,12
			v124.1C156.4,222.3,151,227.7,144.4,227.7z"/>
		<path id="XMLID_39_" class="st2" d="M138,218.8h-29.2c-6.6,0-12-5.4-12-12V100.4c0-6.6,5.4-12,12-12H138c6.6,0,12,5.4,12,12v106.4
			C150,213.4,144.6,218.8,138,218.8z"/>
		<path id="XMLID_31_" class="st2" d="M447.4,184H308.7c-6.6,0-12-5.4-12-12V82.7c0-6.6,5.4-12,12-12h138.6c6.6,0,12,5.4,12,12V172
			C459.4,178.6,454,184,447.4,184z"/>
		<path id="XMLID_30_" class="st2" d="M442.3,179h-130c-6.6,0-12-5.4-12-12V86.2c0-6.6,5.4-12,12-12h130c6.6,0,12,5.4,12,12V167
			C454.3,173.6,448.9,179,442.3,179z"/>
		<rect id="XMLID_29_" x="296.7" y="192.2" class="st2" width="162.6" height="35.4"/>
		<path id="XMLID_28_" class="st2" d="M447.4,221.7c5.2,0,9.5-4.3,9.5-9.5v-4.4c0-5.2-4.3-9.5-9.5-9.5c-2.6,0-5,1.1-6.7,2.8
			c-1.7,1.7-2.8,4.1-2.8,6.7v4.4C437.9,217.4,442.1,221.7,447.4,221.7z"/>
		<path id="XMLID_27_" class="st2" d="M422.4,220.7H312c-6.4,0-11.7-5.3-11.7-11.7c0-3.2,1.3-6.2,3.4-8.3c2.1-2.1,5.1-3.4,8.3-3.4
			h110.3c6.4,0,11.7,5.3,11.7,11.7c0,3.2-1.3,6.1-3.4,8.3C428.5,219.4,425.6,220.7,422.4,220.7z"/>
	</g>
</g>
<g id="XMLID_34_">
	<g id="XMLID_37_">
		<polygon id="XMLID_4_" class="st3" points="244.7,135.8 244.7,140.8 228.7,140.8 228.7,158.8 223.7,158.8 223.7,140.8 
			206.7,140.8 206.7,135.8 223.7,135.8 223.7,118.8 228.7,118.8 228.7,135.8 		"/>
	</g>
	<g id="XMLID_38_">
		<polygon id="XMLID_5_" class="st2" points="244.7,135.8 244.7,140.8 228.7,140.8 228.7,158.8 223.7,158.8 223.7,140.8 
			206.7,140.8 206.7,135.8 223.7,135.8 223.7,118.8 228.7,118.8 228.7,135.8 		"/>
	</g>
</g>
</svg>
